<svg xmlns="http://www.w3.org/2000/svg" viewBox="0 0 32 32">
  <g fill="none">
    <circle cx="16" cy="16" r="16" fill="#2D374B"/>
    <path fill="#28A0F0" d="M16.52 11.024l3.878 6.157 2.322-3.464-4.78-7.41a.87.87 0 00-.72-.384h-.6l-.1 5.101z"/>
    <path fill="#FFF" d="M9.28 20.717l1.545-2.305 3.877 6.156.101 5.102h-.6a.87.87 0 01-.72-.384L9.28 20.717z"/>
    <path fill="#28A0F0" d="M20.398 17.18l-3.878-6.156 3.878 6.157 2.322 3.464 1.545 2.305-4.78-7.41-.1 5.101.101-5.102 2.322-3.464-1.41 5.105z"/>
    <path fill="#FFF" d="M11.602 14.82l3.878 6.156-3.878-6.157-2.322-3.464-1.545-2.305 4.78 7.41.1-5.101-.101 5.102-2.322 3.464 1.41-5.105z"/>
    <path fill="#FFF" d="M16.52 11.024l-.1 5.101.1-5.101zm-1.818 9.644l.101 5.102-.101-5.102z"/>
  </g>
</svg>
