<svg xmlns="http://www.w3.org/2000/svg" viewBox="0 0 32 32">
  <g fill="none">
    <circle cx="16" cy="16" r="16" fill="#000"/>
    <g fill="url(#solana-gradient)">
      <path d="M9.925 19.687a.59.59 0 01.418-.173h13.802c.264 0 .396.319.21.505l-2.79 2.79a.59.59 0 01-.418.173H7.345a.296.296 0 01-.21-.505l2.79-2.79z"/>
      <path d="M9.925 9.191a.607.607 0 01.418-.173h13.802c.264 0 .396.319.21.505l-2.79 2.79a.59.59 0 01-.418.173H7.345a.296.296 0 01-.21-.505l2.79-2.79z"/>
      <path d="M22.075 14.395a.59.59 0 00-.418-.173H7.855a.296.296 0 00-.21.505l2.79 2.79a.59.59 0 00.418.173h13.802a.296.296 0 00.21-.505l-2.79-2.79z"/>
    </g>
    <defs>
      <linearGradient id="solana-gradient" x1="7.135" y1="22.982" x2="24.865" y2="9.018" gradientUnits="userSpaceOnUse">
        <stop stop-color="#9945FF"/>
        <stop offset=".5" stop-color="#14F195"/>
        <stop offset="1" stop-color="#00D1FF"/>
      </linearGradient>
    </defs>
  </g>
</svg>
