<svg xmlns="http://www.w3.org/2000/svg" viewBox="0 0 32 32">
  <circle cx="16" cy="16" r="16" fill="#0AC18E"/>
  <path fill="#fff" d="M20.5 14.1c.2-1.5-.9-2.3-2.5-2.8l.5-2.1-1.2-.3-.5 2c-.3-.1-.6-.1-.9-.2l.5-2-1.2-.3-.5 2.1-.7-.2-1.7-.4-.3 1.3s.9.2.9.2c.5.1.6.5.5.7l-.5 2.2-.9 3.4c-.1.2-.2.5-.6.4l-.9-.2-.6 1.5 1.6.4.9.2-.5 2.1 1.2.3.5-2.1c.3.1.6.2.9.2l-.5 2.1 1.2.3.5-2.1c2.2.4 3.8.2 4.5-1.7.6-1.6 0-2.5-1.2-3.1.8-.2 1.5-.7 1.6-1.9zm-2.9 4c-.4 1.6-3.1.7-4 .5l.7-2.9c.9.2 3.7.7 3.3 2.4zm.4-4c-.4 1.4-2.6.7-3.3.5l.6-2.6c.7.2 3.1.5 2.7 2.1z"/>
</svg>
