<svg xmlns="http://www.w3.org/2000/svg" viewBox="0 0 100 100">
  <circle cx="50" cy="50" r="50" fill="#9B1C2E"/>
  <path d="M65.5 34.5c-2-2-4.5-3.3-7.2-3.8-2.7-.5-5.5 0-7.9 1.3-2.4 1.3-4.3 3.4-5.4 5.9-.5 1.2-.9 2.5-1 3.8-.1 1.3 0 2.6.4 3.9.7 2.6 2.2 4.9 4.3 6.6l12 10c2.1 1.7 3.6 4 4.3 6.6.4 1.3.5 2.6.4 3.9-.1 1.3-.5 2.6-1 3.8-1.1 2.5-3 4.6-5.4 5.9-2.4 1.3-5.2 1.8-7.9 1.3-2.7-.5-5.2-1.8-7.2-3.8L30 65.5" fill="none" stroke="white" stroke-width="6" stroke-linecap="round" stroke-linejoin="round"/>
  <path d="M34.5 65.5c2 2 4.5 3.3 7.2 3.8 2.7.5 5.5 0 7.9-1.3 2.4-1.3 4.3-3.4 5.4-5.9.5-1.2.9-2.5 1-3.8.1-1.3 0-2.6-.4-3.9-.7-2.6-2.2-4.9-4.3-6.6l-12-10c-2.1-1.7-3.6-4-4.3-6.6-.4-1.3-.5-2.6-.4-3.9.1-1.3.5-2.6 1-3.8 1.1-2.5 3-4.6 5.4-5.9 2.4-1.3 5.2-1.8 7.9-1.3 2.7.5 5.2 1.8 7.2 3.8L70 34.5" fill="none" stroke="white" stroke-width="6" stroke-linecap="round" stroke-linejoin="round"/>
</svg>
