<svg xmlns="http://www.w3.org/2000/svg" viewBox="0 0 100 100">
  <circle cx="50" cy="50" r="50" fill="#4DA2FF"/>
  <path d="M50 18c-1.2 0-2.3.5-3.1 1.3L29.3 39.8c-4.5 5-7.3 11.5-7.3 18.7 0 15.5 12.5 28 28 28s28-12.5 28-28c0-7.2-2.7-13.7-7.3-18.7L53.1 19.3C52.3 18.5 51.2 18 50 18zm-8.5 27.5c1.5-1.7 4.2-1.7 5.7 0l5.8 6.5c2.8 3.1 4.5 7.2 4.5 11.5 0 9.6-7.8 17.5-17.5 17.5 0-4.3 1.7-8.3 4.5-11.5l-3-3.5c-4 4.5-6.5 10.4-6.5 15-.8-.2-1.5-.5-2.2-.9C30 76 28 72.3 28 58.5c0-5 1.9-9.5 5-13l8.5-9.5zm17 0l8.5 9.5c3.1 3.5 5 8 5 13 0 13.8-2 17.5-4.8 21.1-.7.4-1.4.7-2.2.9 0-4.6-2.5-10.5-6.5-15l-3 3.5c2.8 3.2 4.5 7.2 4.5 11.5-9.7 0-17.5-7.9-17.5-17.5 0-4.3 1.7-8.4 4.5-11.5l5.8-6.5c1.5-1.7 4.2-1.7 5.7 0z" fill="white"/>
</svg>
