<svg xmlns="http://www.w3.org/2000/svg" viewBox="0 0 32 32">
  <circle cx="16" cy="16" r="16" fill="#FF007A"/>
  <path fill="#fff" d="M11.5 8c-.7 0-1.3.4-1.5 1-.2.5-.1 1.1.3 1.5.1.1.2.2.2.3v.1c0 .1-.1.2-.2.3-.4.4-.5 1-.3 1.5.2.5.7.9 1.3.9h.2c.6 0 1.1-.3 1.4-.8.1-.2.2-.3.3-.3h.1c.1 0 .2.1.3.2.4.4 1 .5 1.5.3.5-.2.9-.7.9-1.3v-.2c0-.6-.3-1.1-.8-1.4-.2-.1-.3-.2-.3-.3v-.1c0-.1.1-.2.2-.3.4-.4.5-1 .3-1.5-.2-.5-.7-.9-1.3-.9h-.2c-.6 0-1.1.3-1.4.8-.1.2-.2.3-.3.3h-.1c-.1 0-.2-.1-.3-.2-.3-.3-.7-.5-1.1-.5zm4.3 7.3c-1.3.6-2.8.9-4.3.9-1.5 0-3-.3-4.3-.9-.3-.1-.5 0-.6.2-.1.3 0 .5.2.6 1.5.7 3.1 1 4.7 1s3.2-.3 4.7-1c.3-.1.4-.4.2-.6-.1-.2-.4-.3-.6-.2zm5.7-3.8c-.3 0-.6.1-.8.4-.2.3-.2.6-.1.9l1.6 4.2c.1.2.3.4.6.4.2 0 .5-.1.6-.3l2.8-3.7c.2-.3.2-.6.1-.9-.1-.3-.4-.5-.7-.5h-.3l-1.8 2.4-1-2.6c-.1-.2-.3-.3-.5-.3h-.5z"/>
</svg>
