<svg xmlns="http://www.w3.org/2000/svg" viewBox="0 0 32 32">
  <circle cx="16" cy="16" r="16" fill="#2775CA"/>
  <path fill="#fff" d="M15.75 27.5A11.5 11.5 0 1 1 27.25 16 11.513 11.513 0 0 1 15.75 27.5zm-.7-16.11a2.58 2.58 0 0 0-2.45 2.47c0 1.21.74 2 2.31 2.33l1.1.26c1.07.25 1.51.61 1.51 1.22s-.77 1.21-1.77 1.21a1.9 1.9 0 0 1-1.8-.91.68.68 0 0 0-.61-.39h-.59a.35.35 0 0 0-.28.41 2.73 2.73 0 0 0 2.61 2.08v.84a.7.7 0 0 0 1.41 0v-.85a2.62 2.62 0 0 0 2.59-2.58c0-1.27-.73-2-2.46-2.37l-1-.22c-1-.25-1.47-.58-1.47-1.14 0-.56.59-1.18 1.6-1.18a1.64 1.64 0 0 1 1.59.81.8.8 0 0 0 .72.46h.47a.42.42 0 0 0 .31-.5 2.65 2.65 0 0 0-2.38-2v-.69a.7.7 0 1 0-1.41 0zm-5.08 5.36a5.73 5.73 0 1 1 5.73 5.73 5.73 5.73 0 0 1-5.73-5.73z"/>
</svg>
