<svg xmlns="http://www.w3.org/2000/svg" viewBox="0 0 32 32">
  <circle cx="16" cy="16" r="16" fill="#F09242"/>
  <circle cx="16" cy="16" r="12" fill="none" stroke="#282138" stroke-width="2"/>
  <path fill="#282138" d="M20.5 14.3c.2-1.4-.9-2.2-2.4-2.7l.5-2-1.2-.3-.5 1.9c-.3-.1-.6-.1-.9-.2l.5-1.9-1.2-.3-.5 2c-.3-.1-.5-.1-.8-.2l-1.6-.4-.3 1.3s.9.2.9.2c.5.1.6.4.6.7l-.6 2.4c0 0 .1 0 .1 0l-.1 0-.8 3.2c-.1.2-.3.5-.7.4 0 0-.9-.2-.9-.2l-.6 1.4 1.5.4c.3.1.6.1.8.2l-.5 2 1.2.3.5-2c.3.1.6.2.9.2l-.5 2 1.2.3.5-2c2.1.4 3.6.2 4.3-1.6.5-1.5-.1-2.3-1.1-2.9.8-.2 1.4-.7 1.5-1.8zm-2.7 3.8c-.4 1.5-2.9.7-3.7.5l.7-2.6c.8.2 3.4.6 3 2.1zm.4-3.8c-.3 1.3-2.4.7-3.1.5l.6-2.4c.7.2 2.9.5 2.5 1.9z"/>
</svg>
